<svg x="0" y="0" version="1.1" xmlns="http://www.w3.org/2000/svg" xmlns:xlink="http://www.w3.org/1999/xlink" viewBox="0 0 8 8" width="96" height="96" style="fill: rgb(255, 255, 255);"><g fill="none" stroke="none" stroke-width="1" stroke-linecap="butt" stroke-linejoin="miter" stroke-miterlimit="10" stroke-dasharray="" stroke-dashoffset="0" font-family="sans-serif" font-weight="normal" font-size="12" text-anchor="start" mix-blend-mode="normal"><g><g><path d="M0,8l0,-8l8,0l0,8z" fill="none"/><path d="M4,8c-2.20914,0 -4,-1.79086 -4,-4l0,0c0,-2.20914 1.79086,-4 4,-4l0,0c2.20914,0 4,1.79086 4,4l0,0c0,2.20914 -1.79086,4 -4,4z" fill="#1b99cc"/><g id="brush" fill="#ffffff"><path d="M6.33214,1.3052c-0.0204,0 -0.02516,0.01156 -0.04284,0.02176l-2.55,1.80608c-0.0272,0.0204 -0.0646,0.07208 -0.085,0.10608l-0.085,0.17c0.4896,0.1564 0.8636,0.5304 1.02,1.02l0.17,-0.085c0.034,-0.0136 0.08568,-0.05168 0.10608,-0.08568l1.80676,-2.54932c0.0204,-0.0272 0.0272,-0.07888 0,-0.10608l-0.27744,-0.27608c-0.0136,-0.0136 -0.04352,-0.0204 -0.06324,-0.0204z M3.08174,4.0048c-0.4964,0 -0.89352,0.41752 -0.89352,0.91392c0,0.6732 -0.36992,1.2376 -0.91392,1.5504c0.272,0.1564 0.58752,0.25568 0.91392,0.25568c1.0064,0 1.80608,-0.79968 1.80608,-1.80608c0,-0.4964 -0.41072,-0.91392 -0.91392,-0.91392z"/></g></g></g></g></svg>