<svg x="0" y="0" version="1.1" xmlns="http://www.w3.org/2000/svg" xmlns:xlink="http://www.w3.org/1999/xlink" viewBox="0 0 26 26" width="96" height="96" style="fill: rgb(255, 255, 255);"><g fill="none" stroke="none" stroke-width="1" stroke-linecap="butt" stroke-linejoin="miter" stroke-miterlimit="10" stroke-dasharray="" stroke-dashoffset="0" font-family="none" font-weight="normal" font-size="12" text-anchor="start" mix-blend-mode="normal"><g><g><path d="M0,26l0,-26l26,0l0,26z" fill="none" font-family="sans-serif"/><path d="M13,26c-7.1797,0 -13,-5.8203 -13,-13l0,0c0,-7.1797 5.8203,-13 13,-13l0,0c7.1797,0 13,5.8203 13,13l0,0c0,7.1797 -5.8203,13 -13,13z" fill="#1b99cc" font-family="sans-serif"/><g id="building" fill="#ffffff" font-family="Bitstream Vera Sans"><path d="M8.17,4.03c-1.13505,0 -2.07,0.93495 -2.07,2.07l0,15.87l13.8,0l0,-15.87c0,-1.13505 -0.93495,-2.07 -2.07,-2.07z M8.17,5.41l9.66,0c0.38295,0 0.69,0.30705 0.69,0.69l0,14.49l-1.38,0l0,-3.45l-3.45,0l0,3.45l-6.21,0l0,-14.49c0,-0.38295 0.30705,-0.69 0.69,-0.69z M8.86,6.79l0,2.07l3.45,0l0,-2.07z M13.69,6.79l0,2.07l3.45,0l0,-2.07z M8.86,10.24l0,2.07l3.45,0l0,-2.07z M13.69,10.24l0,2.07l3.45,0l0,-2.07z M8.86,13.69l0,2.07l3.45,0l0,-2.07z M13.69,13.69l0,2.07l3.45,0l0,-2.07z M8.86,17.14l0,2.07l3.45,0l0,-2.07z"/></g></g></g></g></svg>