<svg x="0" y="0" version="1.1" xmlns="http://www.w3.org/2000/svg" xmlns:xlink="http://www.w3.org/1999/xlink" viewBox="0 0 32 32" width="64" height="64" style="fill: rgb(255, 255, 255);"><g fill="none" stroke="none" stroke-width="1" stroke-linecap="butt" stroke-linejoin="miter" stroke-miterlimit="10" stroke-dasharray="" stroke-dashoffset="0" font-family="sans-serif" font-weight="normal" font-size="12" text-anchor="start" mix-blend-mode="normal"><g><g><path d="M0,32l0,-32l32,0l0,32z" fill="none"/><path d="M16,32c-8.83656,0 -16,-7.16344 -16,-16l0,0c0,-8.83656 7.16344,-16 16,-16l0,0c8.83656,0 16,7.16344 16,16l0,0c0,8.83656 -7.16344,16 -16,16z" fill="#1b99cc"/><g id="car" fill="#ffffff"><path d="M22.87044,13.15182l-1.22359,0c-0.07095,0 -0.13317,0.02947 -0.18174,0.07313c-0.39076,-0.6238 -0.79517,-1.12317 -1.10898,-1.43698c-1.09152,-1.09152 -7.64063,-1.09152 -8.73215,0c-0.31272,0.31327 -0.71494,0.80936 -1.10353,1.4288c-0.04639,-0.0382 -0.10369,-0.06385 -0.16809,-0.06385l-1.22414,0c-0.15008,0 -0.27288,0.12334 -0.27288,0.27288l0,0.55122c0,0.14954 0.12007,0.29471 0.26742,0.32364l0.74223,0.1419c-0.64072,1.4288 -1.01839,3.20688 -0.4246,4.98824l0,1.05714c0,0.3018 0.07641,0.54576 0.17082,0.54576l1.39824,0c0.09442,0 0.17082,-0.24395 0.17082,-0.54576l0,-0.86448c1.25415,0.12007 3.02897,0.25105 4.80923,0.25105c1.76389,0 3.55835,-0.1288 4.81032,-0.24778l0,0.86121c0,0.3018 0.07641,0.54576 0.17028,0.54576l1.39824,0c0.09387,0 0.17028,-0.24395 0.17028,-0.54576l-0.00109,-1.05768c0.59324,-1.77918 0.21667,-3.55617 -0.42296,-4.98497l0.7597,-0.14463c0.14736,-0.02838 0.26742,-0.17355 0.26742,-0.32418l0,-0.55122c0.00164,-0.14954 -0.12116,-0.27288 -0.27124,-0.27288z M11.14589,17.5872c-0.54576,0 -0.98892,-0.44316 -0.98892,-0.98892c0,-0.54576 0.44316,-0.98892 0.98892,-0.98892c0.54576,0 0.98892,0.44316 0.98892,0.98892c0,0.54576 -0.44316,0.98892 -0.98946,0.98892z M10.3136,14.75471c0.52447,-1.19903 1.25415,-2.13774 1.69622,-2.5809c0.31872,-0.31927 1.82284,-0.65873 3.97968,-0.65873c2.15739,0 3.66095,0.34001 3.98022,0.65928c0.44207,0.44207 1.1712,1.38077 1.69513,2.58035c-1.16356,0.1288 -3.4301,-0.16919 -5.67481,-0.16919c-2.24471,0 -4.51125,0.29798 -5.6759,0.16919z M20.83312,17.5872c-0.54576,0 -0.98892,-0.44316 -0.98892,-0.98892c0,-0.54576 0.44316,-0.98892 0.98892,-0.98892c0.54576,0 0.98892,0.44316 0.98892,0.98892c0,0.54576 -0.44316,0.98892 -0.98946,0.98892z"/></g></g></g></g></svg>