<svg x="0" y="0" version="1.1" xmlns="http://www.w3.org/2000/svg" xmlns:xlink="http://www.w3.org/1999/xlink" viewBox="0 0 1024 1234" width="64" height="64" style="fill: rgb(255, 255, 255);"><g fill="none" stroke="none" stroke-width="1" stroke-linecap="butt" stroke-linejoin="miter" stroke-miterlimit="10" stroke-dasharray="" stroke-dashoffset="0" font-family="sans-serif" font-weight="normal" font-size="12" text-anchor="start" mix-blend-mode="normal"><g><g><path d="M0,1234l0,-1234l1024,0l0,1234z" fill="none"/><path d="M512,1234c-282.76979,0 -512,-276.24031 -512,-617l0,0c0,-340.75969 229.23021,-617 512,-617l0,0c282.76979,0 512,276.24031 512,617l0,0c0,340.75969 -229.23021,617 -512,617z" fill="#1b99cc"/><g id="cctv" fill="#ffffff"><path d="M789.51933,489.78049l-166.29216,100.70283c-11.48366,6.62517 -24.84443,10.26903 -40.08237,10.93155c-15.23794,0.66252 -27.71535,-1.87713 -37.43229,-7.61896l-48.36384,-29.15082c-7.95022,11.48364 -17.99841,20.53806 -30.1446,27.16327c-12.14616,6.62517 -25.50696,9.93779 -40.08237,9.93779l0,42.40119c0,35.33432 -12.36702,65.36851 -37.10104,90.10252c-24.73402,24.73401 -54.7682,37.10102 -90.10252,37.10102l0,42.40119c0,11.48364 -4.08553,21.42143 -12.25661,29.81333c-8.17105,8.39191 -18.10883,12.58786 -29.81332,12.58786c-11.7045,0 -21.75269,-4.19595 -30.1446,-12.58786c-8.39191,-8.39191 -12.58786,-18.32969 -12.58786,-29.81333l0,-127.20354c0,-11.48364 4.19594,-21.42143 12.58786,-29.81333c8.39191,-8.39191 18.4401,-12.58786 30.1446,-12.58786c11.7045,0 21.64227,4.19595 29.81332,12.58786c8.17105,8.39191 12.25661,18.32969 12.25661,29.81333l0,42.40119c23.40899,0 43.39495,-8.28148 59.95792,-24.84444c16.56297,-16.56296 24.84443,-36.54893 24.84443,-59.95791l0,-54.32653c-12.80869,-7.50854 -23.07774,-17.66718 -30.8071,-30.47585c-7.72939,-12.80871 -11.59408,-26.94242 -11.59408,-42.40119c0,-13.25037 3.31258,-26.2799 9.93777,-39.08861l-115.94073,-69.56446c-10.15861,-5.74184 -16.7838,-14.46498 -19.87555,-26.16947c-3.09175,-11.70449 -1.76672,-22.63604 3.97511,-32.79468l83.47733,-149.72919c6.1835,-10.60031 14.79624,-17.44633 25.83821,-20.53806c11.04197,-3.09177 21.42144,-1.54588 31.13838,4.63762l433.94964,259.70725c10.15861,5.74184 14.68583,13.13995 13.58163,22.19437c-1.10419,9.05442 -7.39814,17.11505 -18.88177,24.18192z M798.79458,536.15678c4.85847,2.65007 7.95022,6.7356 9.27525,12.25658c1.32503,5.52099 0.66253,10.71073 -1.98755,15.5692l-40.41362,70.22698c-2.65008,4.85847 -6.62519,8.06063 -11.92533,9.60651c-5.30014,1.54588 -10.37947,0.77294 -15.23794,-2.31883l-73.53955,-42.40119l118.59082,-71.55201z"/></g></g></g></g></svg>