<svg x="0" y="0" version="1.1" xmlns="http://www.w3.org/2000/svg" xmlns:xlink="http://www.w3.org/1999/xlink" viewBox="0 0 32 32" width="64" height="64" style="fill: rgb(255, 255, 255);"><g fill="none" stroke="none" stroke-width="1" stroke-linecap="butt" stroke-linejoin="miter" stroke-miterlimit="10" stroke-dasharray="" stroke-dashoffset="0" font-family="sans-serif" font-weight="normal" font-size="12" text-anchor="start" mix-blend-mode="normal"><g><g><path d="M0,32l0,-32l32,0l0,32z" fill="none"/><path d="M16,32c-8.83656,0 -16,-7.16344 -16,-16l0,0c0,-8.83656 7.16344,-16 16,-16l0,0c8.83656,0 16,7.16344 16,16l0,0c0,8.83656 -7.16344,16 -16,16z" fill="#1b99cc"/><g id="clock" fill="#ffffff"><path d="M15.49984,6.57448c-4.93,0 -8.92432,3.99568 -8.92568,8.92568c0.00136,4.92864 3.99568,8.92364 8.92568,8.92636c4.93,-0.00272 8.92432,-3.9984 8.925,-8.92636c0,-4.93 -3.99568,-8.925 -8.925,-8.92568z M15.49984,22.38448c-3.8012,-0.00748 -6.8782,-3.08312 -6.885,-6.88432c0.0068,-3.8012 3.0838,-6.87888 6.885,-6.88568c3.8012,0.0068 6.8782,3.0838 6.88432,6.885c-0.0068,3.8012 -3.08244,6.8782 -6.88432,6.88364z M10.82484,15.50016c0,-0.37536 -0.30464,-0.68 -0.68,-0.68c-0.37672,0 -0.68,0.30464 -0.68,0.68c0,0.37604 0.30464,0.68 0.68,0.68c0.374,0 0.68,-0.30396 0.68,-0.68z M10.52156,17.58912c-0.3264,0.18836 -0.43724,0.6052 -0.24888,0.92956c0.187,0.32504 0.6052,0.4352 0.9282,0.24752c0.32504,-0.187 0.43656,-0.60316 0.24888,-0.92956c-0.18768,-0.32368 -0.60384,-0.4352 -0.92956,-0.2482z M11.2002,12.23276c-0.3264,-0.18768 -0.7412,-0.07616 -0.92888,0.24888c-0.18768,0.32504 -0.0748,0.7412 0.2482,0.92888c0.32504,0.18768 0.7412,0.07684 0.92888,-0.24888c0.187,-0.32504 0.0748,-0.7412 -0.24888,-0.92888z M20.47608,13.41052c0.32504,-0.187 0.43724,-0.60384 0.24888,-0.92888c-0.187,-0.32504 -0.6052,-0.43656 -0.92888,-0.24888c-0.3264,0.18904 -0.43656,0.6052 -0.24888,0.92956c0.18768,0.32436 0.60384,0.43656 0.92888,0.2482z M13.15928,19.54888c-0.32504,-0.187 -0.7412,-0.0748 -0.92888,0.24956c-0.187,0.3264 -0.0748,0.7412 0.24888,0.9282c0.32504,0.18836 0.7412,0.0748 0.9282,-0.2482c0.18836,-0.32504 0.07684,-0.7412 -0.2482,-0.92956z M13.15928,11.45008c0.3264,-0.18768 0.43656,-0.60384 0.24888,-0.92888c-0.18768,-0.3264 -0.60384,-0.43724 -0.92888,-0.24956c-0.32504,0.18768 -0.43656,0.60384 -0.24888,0.92888c0.18836,0.32504 0.60384,0.43656 0.92888,0.2482z M20.47608,17.58708c-0.3264,-0.187 -0.7412,-0.0748 -0.92888,0.2482c-0.187,0.3264 -0.07616,0.74256 0.24956,0.92956c0.32436,0.187 0.7412,0.07684 0.9282,-0.2482c0.18768,-0.3264 0.07616,-0.74256 -0.2482,-0.93024z M18.51904,10.27232c-0.32436,-0.187 -0.7412,-0.0748 -0.9282,0.24956c-0.187,0.3264 -0.0748,0.7412 0.24888,0.92888c0.32368,0.18768 0.73984,0.07616 0.9282,-0.24888c0.18768,-0.32504 0.07684,-0.7412 -0.24956,-0.92956z M20.85756,14.82016c-0.37672,0.00136 -0.68,0.306 -0.68,0.68c0,0.37536 0.30396,0.68 0.68,0.68c0.374,0 0.68,-0.30396 0.68,-0.68c0,-0.374 -0.306,-0.68 -0.68,-0.68z M15.49984,9.46448c-0.374,0 -0.68,0.30464 -0.68,0.68l-0.3162,4.99324l-2.04272,1.3328c-0.32436,0.18836 -0.4352,0.6052 -0.24752,0.9282c0.187,0.3264 0.6052,0.43724 0.9282,0.24956l2.24808,-1.14036c0.03672,0.00476 0.07344,0.01156 0.1122,0.01156c0.5644,0 1.02,-0.4556 1.02,-1.02l-0.34,-5.35568c0,-0.37536 -0.30396,-0.68 -0.68,-0.68z M15.50188,20.17584c-0.374,0 -0.68,0.30396 -0.68,0.68c0,0.37604 0.306,0.68 0.68,0.68c0.374,0 0.68,-0.30396 0.68,-0.68c0,-0.37604 -0.30396,-0.68 -0.68,-0.68z M17.84108,19.54888c-0.3264,0.18836 -0.43792,0.6052 -0.24956,0.92956c0.187,0.32436 0.60384,0.43724 0.92888,0.2482c0.32436,-0.187 0.4352,-0.6052 0.2482,-0.9282c-0.18836,-0.32504 -0.60384,-0.43656 -0.92888,-0.24956z"/></g></g></g></g></svg>