<svg x="0" y="0" version="1.1" xmlns="http://www.w3.org/2000/svg" xmlns:xlink="http://www.w3.org/1999/xlink" viewBox="0 0 493 512" width="64" height="64" style="fill: rgb(255, 255, 255);"><g fill="none" stroke="none" stroke-width="1" stroke-linecap="butt" stroke-linejoin="miter" stroke-miterlimit="10" stroke-dasharray="" stroke-dashoffset="0" font-family="sans-serif" font-weight="normal" font-size="12" text-anchor="start" mix-blend-mode="normal"><g><g><path d="M0,512l0,-512l493,0l0,512z" fill="none"/><path d="M246.5,512c-136.13819,0 -246.5,-114.61511 -246.5,-256l0,0c0,-141.38489 110.36181,-256 246.5,-256l0,0c136.13819,0 246.5,114.61511 246.5,256l0,0c0,141.38489 -110.36181,256 -246.5,256z" fill="#1b99cc"/><g id="elevator" fill="#ffffff"><path d="M330.51585,137.1161c4.13799,0 7.68483,3.54877 7.68483,7.68901l0,222.38979c0,4.14024 -3.54684,7.68901 -7.68483,7.68901l-222.26882,0c-4.13799,0 -7.68483,-3.54877 -7.68483,-7.68901l0,-222.38979c0,-4.14024 3.54684,-7.68901 7.68483,-7.68901z M130.71036,167.87213l0,176.25574l176.75101,0l0,-176.25574z M390.22104,298.58528c0.59114,0 1.18228,0 1.77342,0.59146c0.59114,0.59146 0,1.18292 -0.59114,1.77439l-18.32536,26.02433c-0.59114,0.59146 -0.59114,1.18292 -1.18228,1.18292c-0.59114,0 -1.18228,-0.59146 -1.77342,-1.18292l-18.32536,-26.02433c-0.59114,-0.59146 -1.18228,-1.18292 -0.59114,-1.77439c0.59114,-0.59146 1.18228,-0.59146 1.77342,-0.59146l8.86711,0l0,-23.65848c0,-1.18292 0.59114,-1.77439 1.77342,-1.77439l15.96079,0c1.18228,0 1.77342,0.59146 1.77342,1.77439l0,23.65848z M352.97918,213.41472c-0.59114,0 -1.18228,0 -1.77342,-0.59146c-0.59114,-0.59146 0,-1.18292 0.59114,-1.77439l18.32536,-26.02433c0.59114,-0.59146 1.18228,-1.18292 1.77342,-1.18292c0.59114,0 0.59114,0.59146 1.18228,1.18292l18.91649,26.02433c0.59114,0.59146 0.59114,1.18292 0,1.77439c-0.59114,0.59146 -1.18228,0.59146 -1.77342,0.59146l-8.86711,0l0,23.65848c0,1.18292 -0.59114,1.77439 -1.77342,1.77439l-15.96079,0c-1.18228,0 -1.77342,-0.59146 -1.77342,-1.77439l0,-23.65848z M164.99651,201.58547c0,-10.05486 4.72912,-15.37802 14.77851,-15.37802c10.04938,0 14.77851,5.32316 14.77851,15.37802c0,10.05486 -4.72912,14.78656 -14.77851,14.78656c-10.04938,0 -14.77851,-4.7317 -14.77851,-14.78656z M208.14976,220.51227c3.54684,0.59146 6.50254,3.54877 6.50254,7.09755l0,42.58528c0,1.77439 -0.59114,2.95731 -1.77342,4.14024c-2.36457,2.36585 -7.09369,2.36585 -9.45825,0c-1.18228,-1.18292 -1.77342,-2.36585 -1.77342,-4.14024l0,-29.57311c0,-1.18292 -0.59114,-2.36585 -1.77342,-2.36585c-1.18228,0 -2.36457,1.18292 -2.36457,2.36585l0,77.48155c0,4.14024 -2.9557,7.68901 -7.09369,7.68901c-4.13799,0 -7.68483,-3.54877 -7.68483,-7.68901l0,-39.0365c0,-1.18292 -0.59114,-2.36585 -1.77342,-2.36585c-1.18228,0 -2.36457,1.18292 -2.36457,2.36585l0,39.0365c0,4.14024 -2.9557,7.68901 -7.09369,7.68901c-4.13799,0 -7.68483,-3.54877 -7.68483,-7.68901l0,-77.48155c0,-1.18292 -0.59114,-2.36585 -1.77342,-2.36585c-1.18228,0 -1.77342,1.18292 -1.77342,2.36585l0,29.57311c0,1.77439 -1.18228,2.95731 -2.36457,4.14024c-2.36457,2.36585 -6.50254,2.36585 -8.86711,0c-1.18228,-1.18292 -1.77342,-2.36585 -1.77342,-4.14024l0,-42.58528c0,-4.14024 2.9557,-7.09755 7.09369,-7.09755z M241.25363,201.58547c0,-10.05486 5.32026,-15.37802 15.36966,-15.37802c10.04938,0 14.77851,5.32316 14.77851,15.37802c0,10.05486 -4.72912,14.78656 -14.77851,14.78656c-10.04938,0 -15.36966,-4.7317 -15.36966,-14.78656z M284.99803,220.51227c3.54684,0.59146 5.91141,3.54877 5.91141,7.09755l0,42.58528c0,1.77439 -0.59114,2.95731 -1.77342,4.14024c-2.36457,2.36585 -6.50254,2.36585 -8.86711,0c-1.18228,-1.18292 -1.77342,-2.36585 -1.77342,-4.14024l0,-29.57311c0,-1.18292 -0.59114,-2.36585 -1.77342,-2.36585c-1.18228,0 -2.36457,1.18292 -2.36457,2.36585l0,77.48155c0,4.14024 -2.9557,7.68901 -7.09369,7.68901c-4.13799,0 -7.68483,-3.54877 -7.68483,-7.68901l0,-39.0365c0,-1.18292 -0.59114,-2.36585 -1.77342,-2.36585c-1.18228,0 -2.36457,1.18292 -2.36457,2.36585l0,39.0365c0,4.14024 -2.9557,7.68901 -7.09369,7.68901c-4.13799,0 -7.68483,-3.54877 -7.68483,-7.68901l0,-77.48155c0,-1.18292 -0.59114,-2.36585 -1.77342,-2.36585c-1.18228,0 -2.36457,1.18292 -2.36457,2.36585l0,29.57311c0,1.77439 -0.59114,2.95731 -1.77342,4.14024c-2.36457,2.36585 -6.50254,2.36585 -8.86711,0c-1.18228,-1.18292 -1.77342,-2.36585 -1.77342,-4.14024l0,-42.58528c0,-4.14024 2.9557,-7.09755 7.09369,-7.09755z"/></g></g></g></g></svg>