<svg x="0" y="0" version="1.1" xmlns="http://www.w3.org/2000/svg" xmlns:xlink="http://www.w3.org/1999/xlink" viewBox="0 0 8 8" width="64" height="64" style="fill: rgb(255, 255, 255);"><g fill="none" stroke="none" stroke-width="1" stroke-linecap="butt" stroke-linejoin="miter" stroke-miterlimit="10" stroke-dasharray="" stroke-dashoffset="0" font-family="sans-serif" font-weight="normal" font-size="12" text-anchor="start" mix-blend-mode="normal"><g><g><path d="M0,8l0,-8l8,0l0,8z" fill="none"/><path d="M4,8c-2.20914,0 -4,-1.79086 -4,-4l0,0c0,-2.20914 1.79086,-4 4,-4l0,0c2.20914,0 4,1.79086 4,4l0,0c0,2.20914 -1.79086,4 -4,4z" fill="#1b99cc"/><g id="fork" fill="#ffffff"><path d="M2.14,1.28c-0.56304,0 -1.02,0.45696 -1.02,1.02c0,0.44608 0.28152,0.81736 0.68,0.95608l0,1.48784c-0.39848,0.13872 -0.68,0.51 -0.68,0.95608c0,0.56304 0.45696,1.02 1.02,1.02c0.56304,0 1.02,-0.45696 1.02,-1.02c0,-0.4046 -0.2312,-0.748 -0.57392,-0.91392c0.0612,-0.0612 0.1394,-0.10608 0.23392,-0.10608l1.36,0c0.55964,0 1.02,-0.46036 1.02,-1.02l0,-0.40392c0.39848,-0.13872 0.68,-0.51 0.68,-0.95608c0,-0.56304 -0.45696,-1.02 -1.02,-1.02c-0.56304,0 -1.02,0.45696 -1.02,1.02c0,0.44608 0.28152,0.81736 0.68,0.95608l0,0.40392c0,0.18836 -0.15164,0.34 -0.34,0.34l-1.36,0c-0.1156,0 -0.23528,0.0272 -0.34,0.06392l0,-0.80784c0.39848,-0.13872 0.68,-0.51 0.68,-0.95608c0,-0.56304 -0.45696,-1.02 -1.02,-1.02z"/></g></g></g></g></svg>