<svg x="0" y="0" version="1.1" xmlns="http://www.w3.org/2000/svg" xmlns:xlink="http://www.w3.org/1999/xlink" viewBox="0 0 26 26" width="64" height="64" style="fill: rgb(255, 255, 255);"><g fill="none" stroke="none" stroke-width="1" stroke-linecap="butt" stroke-linejoin="miter" stroke-miterlimit="10" stroke-dasharray="" stroke-dashoffset="0" font-family="sans-serif" font-weight="normal" font-size="12" text-anchor="start" mix-blend-mode="normal"><g><g><path d="M0,26l0,-26l26,0l0,26z" fill="none"/><path d="M13,26c-7.1797,0 -13,-5.8203 -13,-13l0,0c0,-7.1797 5.8203,-13 13,-13l0,0c7.1797,0 13,5.8203 13,13l0,0c0,7.1797 -5.8203,13 -13,13z" fill="#1b99cc"/><g id="maintenance" fill="#ffffff"><path d="M5.05207,4.16176l-0.89284,0.89284l1.57284,2.72l1.02,-0.1496l6.22608,6.22676l-0.53244,0.51c-0.272,0.272 -0.272,0.68408 0,0.95608l0.27676,0.27676c0.272,0.272 0.68816,0.272 0.89216,0l0.80852,0.80716c-0.068,0.408 0,0.89284 0.34,1.23284l3.67608,3.655c0.748,0.748 1.972,0.748 2.72,0c0.884,-0.816 0.87584,-2.03592 0.12784,-2.78392l-3.655,-3.67676c-0.34,-0.34 -0.82484,-0.476 -1.23284,-0.34l-0.89284,-0.80716c0.204,-0.272 0.204,-0.68816 0,-0.89284l-0.255,-0.25432c-0.272,-0.272 -0.68408,-0.272 -0.95608,0l-0.44608,0.44608l-6.22608,-6.22812l0.14824,-1.02l-2.72,-1.57216z M18.31139,4.1808c-1.34096,-0.1088 -3.11984,0.78064 -3.95216,1.55448c-1.02408,1.0234 -0.8568,2.36232 -0.04284,3.65432l-1.44432,1.445l1.02,1.14784c0.544,-0.476 1.3464,-0.476 1.8904,0l0.27676,0.27608l0.06392,0.06392l0.595,-0.595c1.22876,0.72284 2.5092,0.82688 3.48432,-0.1496c0.952,-0.884 1.98424,-3.0634 1.50824,-4.3554l-1.91148,1.9754c-0.272,0.272 -0.68408,0.272 -0.95608,0l-1.97676,-1.97608c-0.272,-0.272 -0.272,-0.68408 0,-0.95608l1.97744,-1.97608c-0.17,-0.05984 -0.34,-0.09044 -0.53176,-0.10676z M10.83207,12.66244l-2.46568,2.465c-0.25568,-0.06052 -0.5304,-0.08568 -0.80716,-0.08568c-1.904,0 -3.4,1.496 -3.4,3.4c0,1.904 1.496,3.4 3.4,3.4c1.904,0 3.4,-1.496 3.4,-3.4c0,-0.34884 -0.0544,-0.68408 -0.1496,-0.9996l1.44568,-1.44432l-0.21216,-0.27608c-0.544,-0.544 -0.53992,-1.36816 -0.06392,-1.91284l-1.14784,-1.14716z M16.10139,15.7646c0.085,0 0.16524,0.01632 0.23324,0.085l4.01676,4.01608c0.136,0.136 0.136,0.35224 0,0.48824c-0.136,0.136 -0.3536,0.136 -0.4896,0l-4.0154,-4.01608c-0.136,-0.136 -0.136,-0.35224 0,-0.48824c0.068,-0.068 0.17,-0.085 0.255,-0.085z M8.02707,16.67716l1.29608,1.29676l-0.46784,1.76324l-1.76324,0.46784l-1.29676,-1.29676l0.46784,-1.76324l1.76392,-0.46784z"/></g></g></g></g></svg>