<svg x="0" y="0" version="1.1" xmlns="http://www.w3.org/2000/svg" xmlns:xlink="http://www.w3.org/1999/xlink" viewBox="0 0 1792 1896" width="64" height="64" style="fill: rgb(255, 255, 255);"><g fill="none" stroke="none" stroke-width="1" stroke-linecap="butt" stroke-linejoin="miter" stroke-miterlimit="10" stroke-dasharray="" stroke-dashoffset="0" font-family="sans-serif" font-weight="normal" font-size="12" text-anchor="start" mix-blend-mode="normal"><g><g><path d="M0,1896l0,-1896l1792,0l0,1896z" fill="none"/><path d="M896,1896c-494.84713,0 -896,-424.43406 -896,-948l0,0c0,-523.56594 401.15287,-948 896,-948l0,0c494.84713,0 896,424.43406 896,948l0,0c0,523.56594 -401.15287,948 -896,948z" fill="#1b99cc"/><g id="outdent" fill="#ffffff"><path d="M604.63514,668.07792l0,327.77105c0,4.93177 -1.80209,9.19961 -5.40621,12.80358c-3.60412,3.60397 -7.87215,5.40593 -12.8041,5.40593c-5.31133,0 -9.67424,-1.70716 -13.08867,-5.12142l-163.89274,-163.88553c-3.41443,-3.41426 -5.12164,-7.77696 -5.12164,-13.08809c0,-5.31113 1.70721,-9.67383 5.12164,-13.08809l163.89274,-163.88553c3.41443,-3.41426 7.77733,-5.12142 13.08867,-5.12142c4.93194,0 9.19997,1.80196 12.8041,5.40593c3.60412,3.60397 5.40621,7.87181 5.40621,12.80358z M1405.88851,1105.10597l0,109.257c0,4.93177 -1.80209,9.19961 -5.40621,12.80358c-3.60412,3.60397 -7.87215,5.40593 -12.8041,5.40593l-983.35636,0c-4.93194,0 -9.19997,-1.80196 -12.8041,-5.40593c-3.60412,-3.60397 -5.40621,-7.87181 -5.40621,-12.80358l0,-109.257c0,-4.93177 1.80209,-9.19961 5.40621,-12.80358c3.60412,-3.60397 7.87215,-5.40593 12.8041,-5.40593l983.35636,0c4.93194,0 9.19997,1.80196 12.8041,5.40593c3.60412,3.60397 5.40621,7.87181 5.40621,12.80358z M1405.88851,886.59197l0,109.257c0,4.93177 -1.80209,9.19961 -5.40621,12.80358c-3.60412,3.60397 -7.87215,5.40593 -12.8041,5.40593l-619.15034,0c-4.93194,0 -9.19997,-1.80196 -12.8041,-5.40593c-3.60412,-3.60397 -5.40621,-7.87181 -5.40621,-12.80358l0,-109.257c0,-4.93177 1.80209,-9.19961 5.40621,-12.80358c3.60412,-3.60397 7.87215,-5.40593 12.8041,-5.40593l619.15034,0c4.93194,0 9.19997,1.80196 12.8041,5.40593c3.60412,3.60397 5.40621,7.87181 5.40621,12.80358z M1405.88851,668.07792l0,109.257c0,4.93177 -1.80209,9.19961 -5.40621,12.80358c-3.60412,3.60397 -7.87215,5.40593 -12.8041,5.40593l-619.15034,0c-4.93194,0 -9.19997,-1.80196 -12.8041,-5.40593c-3.60412,-3.60397 -5.40621,-7.87181 -5.40621,-12.80358l0,-109.257c0,-4.93177 1.80209,-9.19961 5.40621,-12.80358c3.60412,-3.60397 7.87215,-5.40593 12.8041,-5.40593l619.15034,0c4.93194,0 9.19997,1.80196 12.8041,5.40593c3.60412,3.60397 5.40621,7.87181 5.40621,12.80358z M1405.88851,449.56386l0,109.257c0,4.93177 -1.80209,9.19961 -5.40621,12.80358c-3.60412,3.60397 -7.87215,5.40593 -12.8041,5.40593l-983.35636,0c-4.93194,0 -9.19997,-1.80196 -12.8041,-5.40593c-3.60412,-3.60397 -5.40621,-7.87181 -5.40621,-12.80358l0,-109.257c0,-4.93177 1.80209,-9.19961 5.40621,-12.80358c3.60412,-3.60397 7.87215,-5.40593 12.8041,-5.40593l983.35636,0c4.93194,0 9.19997,1.80196 12.8041,5.40593c3.60412,3.60397 5.40621,7.87181 5.40621,12.80358z"/></g></g></g></g></svg>