<svg x="0" y="0" version="1.1" xmlns="http://www.w3.org/2000/svg" xmlns:xlink="http://www.w3.org/1999/xlink" viewBox="0 0 1024 1234" width="64" height="64" style="fill: rgb(255, 255, 255);"><g fill="none" stroke="none" stroke-width="1" stroke-linecap="butt" stroke-linejoin="miter" stroke-miterlimit="10" stroke-dasharray="" stroke-dashoffset="0" font-family="sans-serif" font-weight="normal" font-size="12" text-anchor="start" mix-blend-mode="normal"><g><g><path d="M0,1234l0,-1234l1024,0l0,1234z" fill="none"/><path d="M512,1234c-282.76979,0 -512,-276.24031 -512,-617l0,0c0,-340.75969 229.23021,-617 512,-617l0,0c282.76979,0 512,276.24031 512,617l0,0c0,340.75969 -229.23021,617 -512,617z" fill="#1b99cc"/><g id="plumbing" fill="#ffffff"><path d="M787.23999,674.27999l-157.27999,0c-10.64916,0 -19.86478,-3.89105 -27.64689,-11.67311c-7.78208,-7.7821 -11.67313,-17.1001 -11.67313,-27.95405c0,-10.85395 3.89105,-20.0696 11.67313,-27.64689c7.78208,-7.57729 16.9977,-11.36595 27.64689,-11.36595c0,-26.21333 -26.21335,-39.32 -78.64001,-39.32l-39.31999,0c0,11.05876 -3.78865,20.37676 -11.36593,27.95405c-7.57728,7.57729 -16.89533,11.36595 -27.95406,11.36595l-39.31999,0c-10.64916,0 -19.86478,-3.78866 -27.64689,-11.36595c-7.78208,-7.57729 -11.67313,-16.89533 -11.67313,-27.95405l-117.96,0c0,11.05876 -3.78865,20.37676 -11.36593,27.95405c-7.57728,7.57729 -16.79293,11.36595 -27.64689,11.36595c-10.85396,0 -20.17198,-3.78866 -27.95406,-11.36595c-7.78208,-7.57729 -11.67313,-16.89533 -11.67313,-27.95405l0,-157.28c0,-11.05876 3.89105,-20.37676 11.67313,-27.95405c7.78208,-7.57729 17.1001,-11.36595 27.95406,-11.36595c10.85396,0 20.06958,3.78866 27.64689,11.36595c7.57728,7.57729 11.36593,16.89533 11.36593,27.95405l117.96,0c0,-11.05876 3.89105,-20.37676 11.67313,-27.95405c7.78208,-7.57729 16.9977,-11.36595 27.64689,-11.36595l0,-43.00624c-10.64916,-3.68624 -19.55761,-10.1372 -26.72532,-19.35282c-7.16771,-9.21562 -11.16113,-19.5576 -11.9803,-31.02593c-13.92584,4.09582 -28.87563,7.57729 -44.84939,10.44436c-15.97376,2.86708 -27.44209,4.30063 -34.405,4.30063c-10.64916,0 -19.86478,-3.78866 -27.64689,-11.36595c-7.78208,-7.57729 -11.67313,-16.89533 -11.67313,-27.95405c0,-11.05876 3.89105,-20.37676 11.67313,-27.95405c7.78208,-7.57729 16.9977,-11.36595 27.64689,-11.36595c8.60125,0 22.93666,1.94552 43.00624,5.83657c20.06958,3.89105 36.86251,8.70365 50.37875,14.4378c11.8779,-13.51625 26.62292,-20.27437 44.23499,-20.27437c17.6121,0 32.35708,6.75812 44.23499,20.27437c13.51624,-5.73415 30.30917,-10.54679 50.37875,-14.4378c20.06958,-3.89105 34.405,-5.83657 43.00624,-5.83657c11.05876,0 20.37678,3.78866 27.95406,11.36595c7.57728,7.57729 11.36593,16.89533 11.36593,27.95405c0,11.05876 -3.78865,20.37676 -11.36593,27.95405c-7.57728,7.57729 -16.89533,11.36595 -27.95406,11.36595c-6.96291,0 -18.43124,-1.43356 -34.405,-4.30063c-15.97376,-2.86708 -30.92354,-6.34854 -44.84939,-10.44436c-0.81917,11.46834 -4.8126,21.81032 -11.9803,31.02593c-7.16771,9.21562 -16.07616,15.66655 -26.72532,19.35282l0,43.00624c11.05876,0 20.37678,3.78866 27.95406,11.36595c7.57728,7.57729 11.36593,16.89533 11.36593,27.95405l39.31999,0c43.82542,0 83.45261,7.7821 118.88157,23.34626c35.42897,15.56416 63.7926,38.39845 85.09095,68.5028c21.29832,30.10438 31.94751,65.02136 31.94751,104.75095c11.05876,0 20.37678,3.78866 27.95406,11.36595c7.57728,7.57729 11.36593,16.79291 11.36593,27.64689c0,10.85395 -3.78865,20.17199 -11.36593,27.95405c-7.57728,7.7821 -16.89533,11.67311 -27.95406,11.67311z M787.23999,772.58001c0,16.38332 -5.73417,30.30916 -17.2025,41.77749c-11.46833,11.46834 -25.39418,17.20249 -41.7775,17.20249c-16.38333,0 -30.30917,-5.73415 -41.7775,-17.20249c-11.46833,-11.46834 -17.2025,-25.39417 -17.2025,-41.77749c0,-9.83001 4.60782,-22.83425 13.82344,-39.0128c9.21562,-16.17855 18.63604,-30.10438 28.26126,-41.77749c9.62522,-11.67311 15.25699,-17.50968 16.89533,-17.50968c2.45751,0 8.49885,5.83657 18.12407,17.50968c9.62522,11.67311 18.84084,25.59894 27.64689,41.77749c8.80605,16.17855 13.20907,29.1828 13.20907,39.0128z"/></g></g></g></g></svg>