<svg x="0" y="0" version="1.1" xmlns="http://www.w3.org/2000/svg" xmlns:xlink="http://www.w3.org/1999/xlink" viewBox="0 0 20 20" width="64" height="64" style="fill: rgb(255, 255, 255);"><g fill="none" stroke="none" stroke-width="1" stroke-linecap="butt" stroke-linejoin="miter" stroke-miterlimit="10" stroke-dasharray="" stroke-dashoffset="0" font-family="sans-serif" font-weight="normal" font-size="12" text-anchor="start" mix-blend-mode="normal"><g><g><path d="M0,20l0,-20l20,0l0,20z" fill="none"/><path d="M10,20c-5.52285,0 -10,-4.47715 -10,-10l0,0c0,-5.52285 4.47715,-10 10,-10l0,0c5.52285,0 10,4.47715 10,10l0,0c0,5.52285 -4.47715,10 -10,10z" fill="#1b99cc"/><g id="power-plug" fill="#ffffff"><path d="M5.33333,11.86667l0,0.69907c0,0.12927 0.105,0.23427 0.23427,0.23427l0.46573,0c0.12833,0 0.23333,-0.105 0.23333,-0.23427l0,-0.69907c0,-0.448 0.37333,-1.06073 0.93333,-1.29733l0,-0.9814c-1.0808,0.24967 -1.86667,1.3314 -1.86667,2.27873z M10.96367,7.52667l-1.18067,0.88667c-0.16193,0.12133 -0.35933,0.18667 -0.5614,0.18667l-1.08593,0c-0.259,0 -0.469,0.21 -0.469,0.469l0,1.862c0,0.259 0.21,0.469 0.469,0.469l1.08593,0c0.20253,0 0.39947,0.06533 0.5614,0.18667l1.18067,0.88667c0.28327,0.21187 0.62767,0.32667 0.9814,0.32667l0.85493,0l0,-5.6l-0.85493,0c-0.35373,0 -0.69813,0.1148 -0.9814,0.32667z M13.26667,8.13333l0,0.93333l1.4,0l0,-0.93333z M13.26667,11.86667l1.4,0l0,-0.93333l-1.4,0z"/></g></g></g></g></svg>