<svg x="0" y="0" version="1.1" xmlns="http://www.w3.org/2000/svg" xmlns:xlink="http://www.w3.org/1999/xlink" viewBox="0 0 1920 1896" width="96" height="96" style="fill: rgb(255, 255, 255);"><g fill="none" stroke="none" stroke-width="1" stroke-linecap="butt" stroke-linejoin="miter" stroke-miterlimit="10" stroke-dasharray="" stroke-dashoffset="0" font-family="sans-serif" font-weight="normal" font-size="12" text-anchor="start" mix-blend-mode="normal"><g><g><path d="M0,1896l0,-1896l1920,0l0,1896z" fill="none"/><path d="M960,1896c-530.19335,0 -960,-424.43406 -960,-948l0,0c0,-523.56594 429.80665,-948 960,-948l0,0c530.19335,0 960,424.43406 960,948l0,0c0,523.56594 -429.80665,948 -960,948z" fill="#1b99cc"/><g id="road" fill="#ffffff"><path d="M1068.59427,967.8742l0,-2.87656l-17.26003,-230.12342c-0.47945,-6.23253 -3.11638,-11.626 -7.91084,-16.18057c-4.79446,-4.55452 -10.30804,-6.83178 -16.54085,-6.83178l-133.76514,0c-6.23276,0 -11.7464,2.27726 -16.54085,6.83178c-4.79446,4.55452 -7.43139,9.94804 -7.91084,16.18057l-17.26003,230.12342l0,2.87656c-0.47945,5.75306 1.43835,10.54734 5.75336,14.38273c4.31501,3.83539 9.34919,5.75306 15.1025,5.75306l175.47681,0c5.75336,0 10.78749,-1.91767 15.1025,-5.75306c4.31501,-3.83539 6.23276,-8.62962 5.75336,-14.38273z M1614.44231,1303.71062c0,34.99794 -11.02722,52.49694 -33.08171,52.49694l-506.2938,0c6.23276,0 11.50667,-2.27726 15.82168,-6.83178c4.31501,-4.55452 6.23276,-9.94804 5.75336,-16.18057l-14.38332,-184.09873c-0.47945,-6.23253 -3.11638,-11.626 -7.91084,-16.18057c-4.79446,-4.55452 -10.30804,-6.83178 -16.54085,-6.83178l-195.61349,0c-6.23276,0 -11.7464,2.27726 -16.54085,6.83178c-4.79446,4.55452 -7.43139,9.94804 -7.91084,16.18057l-14.38332,184.09873c-0.47945,6.23253 1.43835,11.626 5.75336,16.18057c4.31501,4.55452 9.58892,6.83178 15.82168,6.83178l-506.2938,0c-22.05449,0 -33.08171,-17.499 -33.08171,-52.49694c0,-25.8889 6.23276,-53.69548 18.69833,-83.41977l299.89281,-750.77775c3.83556,-9.10903 10.06837,-17.01953 18.69833,-23.73147c8.63002,-6.71195 17.73948,-10.06792 27.32835,-10.06792l243.79771,0c-6.23276,0 -11.7464,2.27726 -16.54085,6.83178c-4.79446,4.55452 -7.43139,9.94804 -7.91084,16.18057l-10.78749,138.07409c-0.47945,6.71195 1.43835,12.2253 5.75336,16.54011c4.31501,4.31481 9.58892,6.47224 15.82168,6.47224l119.38176,0c6.23276,0 11.50667,-2.15743 15.82168,-6.47224c4.31501,-4.31481 6.23276,-9.82821 5.75336,-16.54011l-10.78749,-138.07409c-0.47945,-6.23253 -3.11638,-11.626 -7.91084,-16.18057c-4.79446,-4.55452 -10.30804,-6.83178 -16.54085,-6.83178l243.79771,0c9.58892,0 18.69833,3.35597 27.32835,10.06792c8.63002,6.71195 14.86277,14.62244 18.69833,23.73147l299.89281,750.77775c12.46557,29.7243 18.69833,57.53087 18.69833,83.41977z"/></g></g></g></g></svg>