<svg x="0" y="0" version="1.1" xmlns="http://www.w3.org/2000/svg" xmlns:xlink="http://www.w3.org/1999/xlink" viewBox="0 0 20 20" width="96" height="96" style="fill: rgb(255, 255, 255);"><g fill="none" stroke="none" stroke-width="1" stroke-linecap="butt" stroke-linejoin="miter" stroke-miterlimit="10" stroke-dasharray="" stroke-dashoffset="0" font-family="sans-serif" font-weight="normal" font-size="12" text-anchor="start" mix-blend-mode="normal"><g><g><path d="M0,20l0,-20l20,0l0,20z" fill="none"/><path d="M10,20c-5.52285,0 -10,-4.47715 -10,-10l0,0c0,-5.52285 4.47715,-10 10,-10l0,0c5.52285,0 10,4.47715 10,10l0,0c0,5.52285 -4.47715,10 -10,10z" fill="#1b99cc"/><g id="water" fill="#ffffff"><path d="M9.92008,9.38336c-0.3468,2.7982 -2.1216,3.29596 -2.1216,5.24144c-0.00136,1.20156 1.00708,2.17532 2.20184,2.17532c1.19476,0 2.20184,-0.97512 2.20184,-2.176c0,-1.9448 -1.7748,-2.44256 -2.1216,-5.24076c-0.01156,-0.08364 -0.1496,-0.08364 -0.16048,0z M5.84008,3.26336c-0.34612,2.7982 -2.12092,3.29596 -2.12092,5.24076c-0.00068,1.20156 1.00708,2.176 2.20116,2.176c1.19408,0 2.20184,-0.97512 2.20184,-2.176c0,-1.9448 -1.7748,-2.44256 -2.1216,-5.24076c-0.01088,-0.08364 -0.1496,-0.08364 -0.1598,0z M14.00076,3.26336c-0.3468,2.7982 -2.1216,3.29596 -2.1216,5.24144c0,1.20088 1.00776,2.176 2.20184,2.176c1.19408,0 2.20184,-0.97512 2.20184,-2.176c0,-1.9448 -1.7748,-2.44256 -2.1216,-5.24076c-0.01156,-0.08364 -0.1496,-0.08364 -0.1598,0z"/></g></g></g></g></svg>